<?xml version="1.0" encoding="UTF-8"?><svg id="Layer_2" xmlns="http://www.w3.org/2000/svg" viewBox="0 0 347.1 123.42"><defs><style>.cls-1{fill:none;}.cls-1,.cls-2{stroke-width:0px;}.cls-2{fill:#3a314e;}</style></defs><g id="Layer_1-2"><path class="cls-2" d="m47.81,123.4l.18.02c.05,0,.1.01.16,0h18.66c.1,0,.29-.02.36-.03.04,0,.12-.02.19-.03h-19.75c.08.02.17.03.21.04Z"/><path class="cls-2" d="m36.5,0s-.03,0-.04,0h-3.48s-.02,0-.03,0h3.59s-.03,0-.05,0Z"/><path class="cls-2" d="m2.32,123.4c.07,0,.27.02.37.03h18.65c.08,0,.16,0,.24-.02.03,0,.07,0,.1,0,.04,0,.12-.02.21-.04H2.14c.07.02.15.03.19.03Z"/><path class="cls-2" d="m.03,68.6c-.01.06-.02.21-.02.29,0,.02,0,.04,0,.06h0v51.79c0,.08,0,.15.02.22,0,.03,0,.07,0,.1,0,.05.02.15.05.25v-52.89c-.02.08-.03.16-.04.2Z"/><path class="cls-1" d="m226.54,31.72c-.68-.3-1.61-.45-2.78-.45h-4.99v25.59h5.27c2.97,0,4.88-1.49,5.72-4.46l.12-.78v-15.21c0-1.91-1.12-3.48-3.35-4.7Z"/><polygon class="cls-1" points="248.6 118.12 252.48 118.12 250.55 112.88 248.6 118.12"/><path class="cls-1" d="m69.49,0v123.36h277.61v-12.39l-4.64,7.28v4.48h-2.15v-4.47l-4.64-7.29h2.52l3.18,5.32h.03l3.17-5.32h2.53V0H69.49Zm46.17,122.79h-7.86v-11.83h1.7v10.32h6.15v1.51Zm46.67-.19h-7.75v-11.64h7.33v1.48h-5.65v3.39h4.26v1.5h-4.26v3.77h6.07v1.5Zm11.49-91.3h-14.02v25.38h6.83v3.23h-6.83v25.38h14.02v3.31h-17.25V28h17.25v3.31Zm19.76,57.31l-1.19-5.68-6.78-36.17v40.92l-.94.94h-1.43l-.94-.94V28h3.11l9.4,50.44,9.48-50.44h2.17l.86.86v59.76h-3.23v-42.02l-7.85,42.02h-2.66Zm15.78,33.17c-.23.2-.48.39-.77.58-.29.19-.63.36-1.01.51-.38.15-.81.27-1.28.36-.47.09-1.01.13-1.6.13-.92,0-1.75-.15-2.49-.47-.74-.31-1.37-.74-1.9-1.29-.53-.55-.93-1.2-1.21-1.95s-.42-1.57-.42-2.46.15-1.67.44-2.43c.29-.75.69-1.42,1.21-1.98.52-.56,1.15-1.01,1.87-1.33.73-.33,1.53-.48,2.42-.48.63,0,1.19.07,1.68.22.5.15.93.34,1.31.57.37.23.69.48.95.75.26.27.48.53.66.78l-1.21,1.03c-.14-.2-.31-.41-.51-.63-.2-.22-.44-.42-.71-.59-.27-.18-.58-.33-.93-.44-.35-.12-.75-.18-1.2-.18-.65,0-1.23.13-1.75.37-.52.25-.96.58-1.32,1.01-.36.43-.64.93-.84,1.5-.19.57-.29,1.18-.29,1.82,0,.69.1,1.31.32,1.88.21.57.51,1.06.89,1.46.39.41.84.73,1.36.96.52.23,1.09.35,1.72.35.69,0,1.27-.08,1.75-.23.48-.15.89-.37,1.23-.64v-2.41h-2.52v-1.47h4.15v4.72Zm23.84-70.49c0,3.76-1.96,6.54-5.89,8.34-1.06.3-1.91.45-2.53.45h-6.01v28.53h-3.31V27.96h6.95c3.71,0,6.19.68,7.44,2.04,2.24,1.69,3.35,4.02,3.35,6.99v14.3Zm11.54,37.32h-3.23V28h3.23v60.62Zm9.49,34.28l-1.23-3.33h-4.9l-1.24,3.33h-1.8l4.67-11.93h1.75l4.67,11.93h-1.91Zm17.66-34.49l-1.72.57-7.27-28.94h-4.25v28.49h-3.23V27.96h7.03c3.9,0,6.47.82,7.72,2.45.85.65,1.61,1.66,2.29,3.02.38,1.22.57,2.18.57,2.86v15.45c0,2.1-.97,4.12-2.9,6.05-1.77,1.47-3.05,2.21-3.84,2.21l7.11,28.41h-1.51Zm9.17-60.41h17.25v3.31h-14.02v25.38h6.83v3.23h-6.83v25.38h14.02v3.31h-17.25V28Zm12.64,90.41c.21.5.5.93.86,1.29.36.36.78.65,1.27.86.48.21,1,.31,1.56.31.59,0,1.15-.12,1.68-.37s.98-.58,1.35-1.02l1.25,1.32c-.25.26-.53.5-.85.72-.31.23-.65.42-1.01.58-.36.16-.74.29-1.15.39-.4.09-.83.14-1.27.14-.84,0-1.62-.15-2.36-.46-.73-.3-1.37-.72-1.92-1.25-.55-.53-.98-1.15-1.29-1.85-.32-.71-.48-1.47-.48-2.28s.16-1.58.48-2.29c.32-.71.75-1.33,1.29-1.85.55-.52,1.18-.94,1.92-1.24.73-.3,1.52-.45,2.36-.45.44,0,.85.04,1.26.13.4.09.78.21,1.13.37.36.16.69.36,1.01.58.31.23.61.47.87.75l-1.26,1.32c-.37-.44-.81-.78-1.34-1.02-.53-.24-1.09-.36-1.68-.36-.55,0-1.07.1-1.56.31-.48.21-.91.49-1.27.86-.36.36-.65.79-.86,1.29-.21.5-.31,1.04-.31,1.61s.1,1.11.31,1.6Z"/><path class="cls-1" d="m269.62,52.65c.14-.33.2-.82.2-1.47v-14.31c0-2.64-1.39-4.46-4.17-5.44l-1.8-.17h-5.19v25.55h5.23c2.86,0,4.77-1.39,5.72-4.17Z"/><path class="cls-2" d="m270.15,57.8c1.93-1.93,2.9-3.95,2.9-6.05v-15.45c0-.68-.19-1.64-.57-2.86-.68-1.36-1.44-2.37-2.29-3.02-1.25-1.64-3.83-2.45-7.72-2.45h-7.03v60.58h3.23v-28.49h4.25l7.27,28.94,1.72-.57h1.51l-7.11-28.41c.79,0,2.07-.73,3.84-2.21Zm-11.49-.98v-25.55h5.19l1.8.17c2.78.98,4.17,2.79,4.17,5.44v14.31c0,.65-.07,1.14-.2,1.47-.95,2.78-2.86,4.17-5.72,4.17h-5.23Z"/><path class="cls-1" d="m36.55,0s.01,0,.02,0c.08,0,.25.02.31.03.06.01.24.05.3.07.09.03.36.12.44.17.08.04.32.18.39.23.06.05.28.22.33.28.06.07.25.27.3.35.05.07.2.31.23.39.03.07.14.32.16.4.02.08.08.34.09.42,0,.03,0,.06,0,.09.01.08.02.16.02.24v117.6s0,.07,0,.11c0,.04,0,.08-.01.13-.01.1-.03.25-.03.28-.01.08-.09.35-.12.44-.02.07-.15.33-.18.4-.04.08-.21.31-.27.39-.05.07-.25.26-.31.32-.06.06-.28.21-.35.26-.07.05-.33.17-.41.21-.08.03-.34.11-.42.13-.07.02-.29.04-.4.06-.06,0-.12,0-.18,0h-3.48s-.03,0-.05,0t0,0c-.06,0-.11,0-.17-.02-.11-.01-.26-.03-.29-.03-.07-.01-.33-.09-.39-.11-.09-.03-.36-.16-.44-.2-.06-.03-.27-.18-.33-.22-.09-.06-.17-.13-.24-.21-.05-.05-.22-.25-.26-.31-.05-.07-.2-.3-.23-.38-.03-.08-.14-.33-.16-.41-.02-.09-.09-.36-.09-.45,0-.03,0-.06,0-.09-.01-.07-.02-.14-.02-.22V2.67h0s0-.07,0-.1c0-.08.02-.23.03-.29.01-.07.05-.26.07-.33.03-.08.12-.35.16-.42.04-.08.18-.33.24-.4.05-.07.23-.28.29-.34.06-.06.26-.24.33-.28.08-.05.31-.2.39-.24.07-.03.32-.13.39-.15.09-.02.37-.09.47-.1.03,0,.06,0,.09,0,.06,0,.13-.01.19-.01H.06v68.39s0-.04.01-.05c-.01-.18,0-.37.06-.55.05-.16.13-.32.23-.46.03-.04.07-.09.1-.13l.14-.15s.05-.06.08-.08c.1-.13.21-.24.35-.34.05-.03.09-.06.14-.09l.18-.1v.02s.01,0,.02,0c.13-.1.28-.18.44-.24.08-.03.17-.05.25-.06h0s.22-.04.22-.04c.03,0,.06,0,.08-.01.1-.03.21-.04.32-.05t0,0s.04,0,.06,0h3.4c.09,0,.18,0,.28.01l.15.02s.03,0,.04,0c.14,0,.28.03.42.08.04.01.07.03.11.04l.19.08h0c.23.07.46.18.65.36l.18.16v.02s.06.04.09.07t0,0c.13.1.25.23.34.37.02.03.04.07.06.1l.1.18s.04.08.06.12c.07.11.13.22.17.35,0,0,0,.02.01.03,0,.01,0,.02.01.04.02.06.03.12.04.19l.02.09s.04.24.05.32c0,.05.02.1.02.15,0,.05,0,.1,0,.15v28.36s0,17.06,0,17.06h5.85V36.02s0-.07,0-.1c0-.04,0-.08.01-.12v-.06s.01-.06.02-.08c0-.14.03-.29.07-.43.02-.05.03-.09.05-.13l.08-.19s.03-.07.05-.1c.04-.13.1-.24.17-.36.2-.31.49-.52.82-.62.09-.06.33-.21.41-.25.06-.03.31-.13.37-.15.1-.03.39-.1.48-.1.03,0,.07,0,.1,0,.07,0,.14-.01.21-.01h3.5c.1,0,.29.01.36.03.08.01.28.05.35.07.08.03.36.13.43.17.07.03.32.18.38.22.07.05.29.23.35.29.06.06.25.27.29.34.05.07.2.31.24.39.03.07.14.33.16.4.02.09.09.37.1.47,0,.03,0,.06,0,.1.01.07.02.14.02.22v84.76s0,.03,0,.05c0,.08-.02.24-.03.3-.01.06-.05.26-.07.32-.03.08-.12.36-.16.43-.04.08-.19.34-.24.41-.05.07-.23.28-.29.34-.06.05-.26.23-.33.28-.08.06-.32.21-.41.25-.08.03-.35.14-.43.17-.04,0-.13.03-.21.05h25.71c-.09-.02-.18-.04-.21-.05-.09-.02-.35-.13-.43-.17-.09-.04-.33-.2-.41-.25-.06-.04-.27-.23-.33-.28-.06-.06-.24-.27-.29-.34-.06-.08-.2-.33-.24-.41-.04-.08-.13-.35-.16-.43-.02-.06-.06-.26-.07-.32,0-.06-.02-.22-.02-.3,0-.02,0-.03,0-.06h0V35.95s0-.04,0-.07v-.18c.02-.09.09-.38.11-.47.02-.08.13-.33.16-.4.04-.08.19-.32.24-.39.05-.07.24-.28.29-.34.06-.06.28-.24.35-.29.07-.05.31-.19.38-.22.08-.04.35-.14.43-.17.07-.02.28-.06.35-.07.07-.01.25-.02.35-.03h3.56s.05,0,.08,0h.18c.1.02.39.09.49.12.07.02.31.12.37.15.09.03.32.18.41.25.33.1.62.31.82.62.1.15.17.31.2.47.06.1.11.21.15.32.05.15.07.3.07.45.02.08.03.18.03.27v78.43h5.85v-45.42c0-.06,0-.11,0-.16.01-.12.03-.23.07-.34,0-.03,0-.06,0-.09h0,0c.01-.13.04-.26.08-.38.06-.17.14-.31.24-.44.04-.1.08-.2.14-.29.1-.15.22-.29.36-.39.03-.03.07-.05.1-.07.05-.05.1-.11.15-.16h0s0,0,0,0c.07-.06.14-.12.22-.17.08-.05.16-.09.24-.13.09-.03.31-.13.38-.16.04-.02.07-.03.11-.04.16-.06.34-.03.5-.08.1-.02.2-.04.3-.03h3.5s.04,0,.07,0c.15,0,.29.03.43.08.07,0,.13,0,.2.02h0c.22.03.42.12.6.23.09.05.22.12.28.15.05.03.09.05.14.09.14.1.27.21.37.35.02.03.04.06.06.08.09.07.17.16.24.25.11.15.19.31.24.48.05.18.07.36.06.54.02.09.04.2.05.25,0,.06.02.21.02.29,0,.02,0,.04,0,.06v51.85s0,.05,0,.07v.18c-.02.1-.09.38-.12.47-.02.07-.12.33-.15.39-.04.08-.19.33-.24.4-.04.07-.23.28-.29.34-.06.06-.28.24-.35.29-.06.05-.31.19-.38.22-.08.04-.36.14-.45.17-.03,0-.09.02-.14.03h2.14V0h-32.94Z"/><path class="cls-1" d="m1.54,123.16c-.07-.03-.32-.18-.38-.22-.07-.05-.29-.23-.35-.29-.06-.06-.25-.27-.29-.34-.05-.07-.2-.32-.24-.4-.03-.07-.13-.32-.15-.39-.01-.04-.04-.13-.06-.22v2.08h2.07c-.06-.01-.12-.02-.14-.03-.09-.03-.37-.13-.45-.17Z"/><path class="cls-2" d="m67.95,123.16c.07-.03.32-.18.38-.22.07-.05.29-.23.35-.29.06-.06.25-.27.29-.34.05-.07.2-.32.24-.4.03-.07.13-.32.15-.39.03-.09.09-.37.1-.47v-.18s.02-.04.02-.07v-51.85s0-.04,0-.06c0-.08-.02-.23-.02-.29,0-.05-.03-.17-.05-.25.01-.18,0-.36-.06-.54-.05-.17-.13-.33-.24-.48-.07-.09-.15-.18-.24-.25-.02-.03-.04-.05-.06-.08-.1-.14-.22-.25-.37-.35-.05-.03-.09-.06-.14-.09-.06-.03-.19-.1-.28-.15-.18-.12-.38-.2-.6-.24h0c-.07,0-.14-.01-.2-.01-.14-.04-.28-.07-.43-.08-.02,0-.04,0-.07,0h-3.5c-.1,0-.2.01-.3.03-.16.06-.33.03-.5.08-.04.01-.07.03-.11.04-.07.03-.29.12-.38.16-.08.04-.17.07-.24.13-.08.05-.15.1-.22.17-.06.05-.1.1-.15.16-.03.02-.07.04-.1.07-.14.1-.26.24-.36.39-.06.09-.1.19-.14.29-.1.13-.18.28-.24.44-.04.12-.07.25-.08.38,0,.03,0,.06,0,.09-.03.1-.06.22-.07.34,0,.05,0,.1,0,.16v45.42h-5.85V35.97c0-.09-.01-.19-.03-.27,0-.15-.03-.3-.07-.45-.04-.12-.09-.22-.15-.32-.04-.16-.11-.32-.2-.47-.2-.31-.49-.52-.82-.62-.09-.06-.33-.21-.41-.25-.06-.03-.31-.13-.37-.15-.1-.03-.39-.1-.49-.1h-.18s-.05-.02-.08-.02h-3.56c-.1,0-.29.01-.35.03-.08.01-.28.05-.35.07-.08.03-.36.13-.43.17-.07.03-.32.18-.38.22-.07.05-.29.23-.35.29-.06.06-.25.27-.29.34-.05.07-.2.31-.24.39-.03.07-.14.33-.16.4-.02.09-.09.37-.1.47v.18s-.02.04-.02.07v84.81h0s0,.04,0,.06c0,.08.02.24.02.3.01.06.05.26.07.32.03.08.12.36.16.43.04.08.19.34.24.41.05.07.23.28.29.34.06.05.26.23.33.28.08.06.32.21.41.25.08.03.35.14.43.17.04,0,.13.03.21.05h19.75c.06-.01.12-.02.14-.03.09-.03.37-.13.45-.17Z"/><path class="cls-2" d="m32.67.02c-.1,0-.37.08-.47.1-.07.02-.32.12-.39.15-.08.04-.31.19-.39.24-.07.04-.27.23-.33.28-.06.06-.24.27-.29.34-.06.07-.19.32-.24.4-.04.07-.13.34-.16.42-.02.07-.06.26-.07.33-.01.06-.02.21-.03.29,0,.03,0,.06,0,.09h0v117.64c0,.08,0,.15.02.22,0,.03,0,.06,0,.09,0,.09.07.36.09.45.02.08.13.34.16.41.03.08.18.31.23.38.04.06.21.26.26.31.07.08.15.15.24.21.06.04.27.19.33.22.08.04.35.18.44.2.07.02.32.1.39.11.03,0,.18.02.29.03.06.01.11.01.17.02t0,0s.03,0,.05,0h3.48c.06,0,.12,0,.18,0,.1-.01.33-.04.4-.06.08-.02.35-.1.42-.13.08-.03.33-.16.41-.21.07-.04.29-.2.35-.26.06-.05.26-.25.31-.32.06-.07.23-.3.27-.39.03-.07.16-.33.18-.4.03-.08.11-.35.12-.44,0-.03.02-.17.03-.28,0-.04,0-.09.01-.13,0-.04,0-.07,0-.11V2.67c0-.08,0-.17-.02-.24,0-.03,0-.06,0-.09,0-.08-.07-.35-.09-.42-.02-.08-.12-.33-.16-.4-.03-.08-.18-.31-.23-.39-.05-.08-.24-.28-.3-.35-.05-.06-.27-.23-.33-.28-.07-.05-.31-.19-.39-.23-.08-.04-.36-.14-.44-.17-.06-.02-.24-.06-.3-.07-.06-.01-.23-.02-.31-.03,0,0-.01,0-.02,0h-3.59c-.06,0-.13,0-.19.01-.03,0-.06,0-.09,0Z"/><path class="cls-2" d="m22.53,123.15c.09-.04.33-.2.41-.25.06-.04.27-.23.33-.28.06-.06.24-.27.29-.34.06-.08.2-.33.24-.41.04-.08.13-.35.16-.43.02-.06.06-.26.07-.32.01-.06.02-.22.03-.3,0-.01,0-.03,0-.05V36.02c0-.08,0-.15-.02-.22,0-.03,0-.07,0-.1,0-.09-.08-.38-.1-.47-.02-.08-.13-.33-.16-.4-.04-.08-.19-.32-.24-.39-.04-.07-.23-.28-.29-.34-.06-.06-.28-.24-.35-.29-.06-.05-.31-.19-.38-.22-.08-.04-.35-.14-.43-.17-.07-.02-.28-.06-.35-.07-.07-.01-.26-.02-.36-.03h-3.5c-.07,0-.14,0-.21.01-.03,0-.07,0-.1,0-.1,0-.39.08-.48.1-.07.02-.31.12-.37.15-.09.03-.32.18-.41.25-.33.1-.62.31-.82.62-.08.12-.13.23-.17.36-.02.03-.03.07-.05.1l-.08.19s-.03.09-.05.13c-.04.14-.07.29-.07.43,0,.03-.01.05-.01.08v.06s-.02.08-.02.12c0,.03,0,.07,0,.1v78.38h-5.85v-17.06s0-28.36,0-28.36c0-.05,0-.1,0-.15,0-.05-.01-.1-.02-.15-.01-.08-.05-.31-.05-.32l-.02-.09c-.01-.06-.02-.13-.04-.19,0-.01,0-.02-.01-.04,0-.01,0-.02-.01-.03-.04-.13-.1-.24-.17-.35-.02-.04-.04-.08-.06-.12l-.1-.18s-.04-.07-.06-.1c-.09-.15-.21-.28-.34-.37t0,0s-.07-.05-.1-.07v-.02s-.17-.16-.17-.16c-.19-.17-.42-.29-.65-.34h0s-.19-.09-.19-.09c-.04-.02-.07-.03-.11-.04-.14-.05-.28-.07-.42-.08-.02,0-.03,0-.04,0l-.15-.02c-.09-.02-.19-.02-.28-.01h-3.4s-.04,0-.06,0t0,0c-.11,0-.22.02-.32.05-.03,0-.06,0-.08.01l-.22.03h0c-.08.02-.17.04-.25.07-.17.06-.31.14-.44.24t0,0v-.02s-.19.1-.19.1c-.05.03-.09.06-.14.09-.14.09-.25.21-.35.34-.03.03-.05.05-.08.08l-.14.15s-.07.08-.1.13c-.1.14-.18.29-.23.46-.06.18-.08.37-.06.55,0,.02,0,.04-.01.05v52.89c.02.09.04.18.06.22.02.07.12.33.15.39.04.08.19.33.24.4.05.07.24.28.29.34.06.06.28.24.35.29.06.05.31.19.38.22.08.04.36.14.45.17.03,0,.09.02.14.03h19.75c.09-.02.18-.04.21-.05.09-.02.35-.13.43-.17Z"/><polygon class="cls-2" points="156.57 88.62 173.82 88.62 173.82 85.31 159.8 85.31 159.8 59.92 166.63 59.92 166.63 56.69 159.8 56.69 159.8 31.31 173.82 31.31 173.82 28 156.57 28 156.57 88.62"/><polygon class="cls-2" points="204.08 88.62 207.31 88.62 207.31 28.86 206.45 28 204.29 28 194.81 78.44 185.4 28 182.3 28 182.3 87.68 183.24 88.62 184.67 88.62 185.61 87.68 185.61 46.76 192.39 82.94 193.58 88.62 196.24 88.62 204.08 46.6 204.08 88.62"/><path class="cls-2" d="m229.85,30c-1.25-1.36-3.73-2.04-7.44-2.04h-6.95v60.66h3.31v-28.53h6.01c.63,0,1.47-.15,2.53-.45,3.92-1.8,5.89-4.58,5.89-8.34v-14.3c0-2.97-1.12-5.3-3.35-6.99Zm.04,21.62l-.12.78c-.84,2.97-2.75,4.46-5.72,4.46h-5.27v-25.59h4.99c1.17,0,2.1.15,2.78.45,2.23,1.22,3.35,2.79,3.35,4.7v15.21Z"/><rect class="cls-2" x="241.52" y="28" width="3.23" height="60.62"/><polygon class="cls-2" points="298.33 85.31 284.31 85.31 284.31 59.92 291.13 59.92 291.13 56.69 284.31 56.69 284.31 31.31 298.33 31.31 298.33 28 281.08 28 281.08 88.62 298.33 88.62 298.33 85.31"/><polygon class="cls-2" points="109.5 110.97 107.8 110.97 107.8 122.8 115.66 122.8 115.66 121.29 109.5 121.29 109.5 110.97"/><polygon class="cls-2" points="156.25 117.34 160.51 117.34 160.51 115.84 156.25 115.84 156.25 112.45 161.91 112.45 161.91 110.97 154.58 110.97 154.58 122.61 162.33 122.61 162.33 121.1 156.25 121.1 156.25 117.34"/><path class="cls-2" d="m205.21,118.54h2.52v2.41c-.34.27-.75.48-1.23.64-.48.15-1.06.23-1.75.23-.63,0-1.2-.12-1.72-.35-.52-.23-.97-.55-1.36-.96-.38-.41-.68-.89-.89-1.46-.21-.57-.32-1.19-.32-1.88,0-.64.1-1.24.29-1.82.2-.57.47-1.07.84-1.5.36-.43.8-.76,1.32-1.01.52-.25,1.1-.37,1.75-.37.45,0,.85.06,1.2.18.35.12.66.27.93.44.27.18.51.38.71.59.2.22.37.43.51.63l1.21-1.03c-.18-.25-.4-.51-.66-.78-.26-.27-.58-.52-.95-.75-.37-.23-.81-.42-1.31-.57-.5-.15-1.06-.22-1.68-.22-.89,0-1.69.16-2.42.48-.73.33-1.35.77-1.87,1.33-.52.56-.92,1.22-1.21,1.98-.29.76-.44,1.57-.44,2.43s.14,1.71.42,2.46.68,1.4,1.21,1.95c.52.55,1.16.98,1.9,1.29.74.31,1.57.47,2.49.47.59,0,1.12-.04,1.6-.13.47-.09.9-.21,1.28-.36.39-.15.72-.31,1.01-.51.29-.19.55-.38.77-.58v-4.72h-4.15v1.47Z"/><path class="cls-2" d="m249.73,110.97l-4.67,11.93h1.8l1.24-3.33h4.9l1.23,3.33h1.91l-4.67-11.93h-1.75Zm-1.13,7.16l1.95-5.24,1.93,5.24h-3.88Z"/><path class="cls-2" d="m294.58,113.9c.36-.36.78-.65,1.27-.86.48-.21,1-.31,1.56-.31.59,0,1.16.12,1.68.36.52.24.97.58,1.34,1.02l1.26-1.32c-.27-.27-.56-.52-.87-.75-.32-.22-.65-.42-1.01-.58-.36-.16-.74-.29-1.13-.37-.4-.09-.82-.13-1.26-.13-.84,0-1.62.15-2.36.45-.73.3-1.37.72-1.92,1.24-.55.52-.98,1.14-1.29,1.85-.32.71-.48,1.47-.48,2.29s.16,1.57.48,2.28c.32.71.75,1.33,1.29,1.85.55.53,1.18.94,1.92,1.25.73.3,1.52.46,2.36.46.44,0,.87-.05,1.27-.14.4-.09.79-.22,1.15-.39.36-.17.7-.36,1.01-.58.31-.22.59-.46.85-.72l-1.25-1.32c-.37.43-.82.77-1.35,1.02s-1.09.37-1.68.37c-.55,0-1.07-.1-1.56-.31-.48-.21-.91-.49-1.27-.86-.36-.36-.65-.79-.86-1.29-.21-.5-.31-1.03-.31-1.6s.1-1.11.31-1.61c.21-.5.5-.93.86-1.29Z"/><polygon class="cls-2" points="341.4 116.29 341.37 116.29 338.19 110.97 335.67 110.97 340.31 118.26 340.31 122.73 342.46 122.73 342.46 118.25 347.1 110.97 344.57 110.97 341.4 116.29"/></g></svg>