<!--Scalable Vector Graphic-->
   <svg 
 xmlns="http://www.w3.org/2000/svg"
 xmlns:xlink="http://www.w3.org/1999/xlink"
 width="161px" height="41px">
      <path fill-rule="evenodd"  fill="rgb(58, 51, 79)"
 d="M160.505,25.152 L160.505,26.500 C160.505,27.286 159.868,27.923 159.081,27.923 L149.130,27.923 L149.130,12.256 L160.343,12.256 L160.343,15.027 L152.228,15.027 L152.228,18.530 L159.856,18.530 L159.856,21.232 L152.228,21.232 L152.228,25.152 L160.505,25.152 ZM134.985,27.923 L129.079,27.923 L129.079,12.256 L134.961,12.256 C137.625,12.256 139.697,12.988 141.122,14.434 C142.588,15.875 143.300,17.737 143.300,20.124 C143.300,22.494 142.575,24.408 141.144,25.815 C139.745,27.214 137.672,27.923 134.985,27.923 ZM138.937,16.402 C138.123,15.489 136.707,15.027 134.730,15.027 L132.177,15.027 L132.177,25.152 L134.753,25.152 C138.404,25.152 140.179,23.507 140.179,20.124 C140.179,18.550 139.760,17.297 138.937,16.402 ZM114.731,28.376 C112.389,28.376 110.353,27.575 108.683,25.998 C107.044,24.405 106.213,22.429 106.213,20.124 C106.213,17.802 107.020,15.889 108.682,14.274 C110.346,12.680 112.381,11.872 114.731,11.872 C117.087,11.872 119.114,12.680 120.756,14.275 C122.433,15.882 123.249,17.795 123.249,20.124 C123.249,22.429 122.418,24.405 120.780,25.996 C119.131,27.575 117.095,28.376 114.731,28.376 ZM118.550,16.288 C117.512,15.226 116.227,14.687 114.731,14.687 C113.234,14.687 111.949,15.226 110.911,16.288 C109.882,17.341 109.360,18.631 109.360,20.124 C109.360,21.669 109.867,22.939 110.911,24.007 L110.913,24.009 C111.943,25.039 113.228,25.561 114.731,25.561 C116.227,25.561 117.504,25.030 118.525,23.986 C119.571,22.940 120.101,21.641 120.101,20.124 C120.101,18.631 119.580,17.341 118.550,16.288 ZM88.619,17.168 L88.619,26.502 C88.619,27.287 87.982,27.923 87.197,27.923 L85.637,27.923 L85.637,12.256 L88.460,12.256 L96.976,22.736 L96.976,12.256 L99.958,12.256 L99.958,27.923 L97.388,27.923 L88.619,17.168 ZM77.109,27.923 L75.435,27.923 L75.435,12.256 L78.533,12.256 L78.533,26.501 C78.533,27.286 77.896,27.923 77.109,27.923 ZM65.021,26.503 L65.021,21.023 L57.128,21.023 L57.128,27.923 L54.030,27.923 L54.030,12.256 L55.706,12.256 C56.491,12.256 57.128,12.891 57.128,13.676 L57.128,18.252 L65.021,18.252 L65.021,12.256 L68.119,12.256 L68.119,27.923 L66.443,27.923 C65.658,27.923 65.021,27.287 65.021,26.503 ZM36.874,21.108 C36.764,23.551 36.100,25.852 35.005,27.888 L38.415,29.669 L38.729,30.736 L37.647,30.999 L34.387,28.931 C33.113,30.921 31.408,32.609 29.404,33.863 L31.492,37.149 L31.229,38.230 L30.161,37.917 L28.355,34.465 C26.318,35.535 24.023,36.175 21.588,36.266 L21.752,40.168 L20.984,40.973 L20.216,40.168 L20.380,36.266 C17.945,36.175 15.650,35.535 13.613,34.465 L11.807,37.917 L10.739,38.230 L10.477,37.149 L12.564,33.863 C10.560,32.609 8.856,30.921 7.581,28.931 L4.321,30.999 L3.240,30.736 L3.553,29.669 L6.964,27.888 C5.868,25.852 5.205,23.551 5.095,21.108 L1.300,21.267 L0.495,20.500 L1.300,19.732 L5.089,19.891 C5.165,17.436 5.800,15.119 6.872,13.064 L3.553,11.331 L3.240,10.264 L4.321,10.001 L7.478,12.003 C8.742,9.978 10.449,8.258 12.462,6.976 L10.477,3.851 L10.739,2.770 L11.807,3.083 L13.520,6.356 C15.577,5.259 17.902,4.602 20.370,4.508 L20.216,0.832 L20.984,0.027 L21.752,0.832 L21.598,4.508 C24.066,4.602 26.391,5.259 28.449,6.356 L30.161,3.083 L31.229,2.770 L31.492,3.851 L29.506,6.976 C31.520,8.258 33.227,9.978 34.490,12.003 L37.647,10.001 L38.729,10.264 L38.415,11.331 L35.096,13.064 C36.169,15.119 36.803,17.436 36.879,19.891 L40.669,19.732 L41.474,20.500 L40.669,21.267 L36.874,21.108 ZM33.957,13.659 L30.463,15.484 L30.071,14.806 L33.406,12.691 C32.243,10.825 30.672,9.241 28.818,8.060 L26.683,11.421 L26.004,11.029 L27.853,7.494 C25.959,6.483 23.817,5.877 21.544,5.791 L21.376,9.790 L20.592,9.790 L20.424,5.791 C18.151,5.877 16.009,6.483 14.115,7.494 L15.964,11.029 L15.285,11.421 L13.151,8.060 C11.296,9.241 9.725,10.825 8.563,12.691 L11.898,14.806 L11.506,15.484 L8.011,13.659 C7.024,15.551 6.441,17.684 6.373,19.945 L10.266,20.108 L10.266,20.892 L6.379,21.055 C6.481,23.303 7.093,25.420 8.103,27.293 L11.506,25.516 L11.898,26.194 L8.666,28.243 C9.839,30.074 11.408,31.626 13.253,32.779 L15.285,29.579 L15.964,29.971 L14.208,33.328 C16.082,34.311 18.194,34.900 20.434,34.983 L20.592,31.210 L21.376,31.210 L21.535,34.983 C23.774,34.900 25.886,34.311 27.760,33.327 L26.004,29.971 L26.683,29.579 L28.716,32.779 C30.561,31.626 32.129,30.074 33.303,28.243 L30.071,26.194 L30.463,25.516 L33.866,27.293 C34.876,25.420 35.488,23.303 35.589,21.055 L31.703,20.892 L31.703,20.108 L35.595,19.945 C35.527,17.684 34.944,15.551 33.957,13.659 ZM31.284,17.625 C31.213,17.362 31.209,17.366 31.120,17.241 L33.865,16.387 C33.915,16.548 33.944,16.631 34.015,16.894 C34.085,17.158 34.103,17.251 34.141,17.416 L31.379,18.018 C31.350,17.892 31.355,17.889 31.284,17.625 ZM31.380,22.752 L34.141,23.358 C34.103,23.523 34.087,23.609 34.017,23.872 C33.946,24.135 33.915,24.226 33.865,24.387 L31.172,23.529 C31.210,23.405 31.215,23.404 31.286,23.141 C31.357,22.878 31.351,22.879 31.380,22.752 ZM30.527,29.916 C30.334,30.109 30.262,30.120 30.137,30.287 L28.235,28.197 C28.330,28.109 28.335,28.112 28.528,27.919 C28.721,27.726 28.715,27.724 28.804,27.629 L30.892,29.533 C30.777,29.657 30.720,29.723 30.527,29.916 ZM28.522,12.850 C28.329,12.657 28.327,12.662 28.232,12.574 L30.137,10.488 C30.262,10.603 30.328,10.660 30.521,10.852 C30.714,11.045 30.777,11.117 30.892,11.241 L28.801,13.142 C28.713,13.047 28.715,13.042 28.522,12.850 ZM23.957,33.533 L23.355,30.773 C23.482,30.744 23.485,30.749 23.748,30.679 C24.012,30.608 24.008,30.603 24.132,30.565 L24.988,33.257 C24.826,33.307 24.743,33.336 24.480,33.407 C24.216,33.477 24.122,33.495 23.957,33.533 ZM23.740,10.093 C23.477,10.023 23.478,10.029 23.351,9.1000 L23.957,7.241 C24.122,7.279 24.208,7.295 24.472,7.365 C24.736,7.436 24.826,7.467 24.988,7.517 L24.128,10.208 C24.004,10.170 24.004,10.164 23.740,10.093 ZM17.496,33.409 C17.233,33.338 17.142,33.307 16.980,33.257 L17.840,30.566 C17.964,30.604 17.964,30.610 18.228,30.681 C18.492,30.751 18.491,30.745 18.617,30.774 L18.011,33.533 C17.846,33.495 17.760,33.479 17.496,33.409 ZM17.836,10.209 L16.980,7.517 C17.142,7.467 17.225,7.438 17.488,7.367 C17.752,7.297 17.846,7.279 18.011,7.241 L18.613,10.001 C18.487,10.030 18.484,10.025 18.220,10.096 C17.957,10.166 17.960,10.120 17.836,10.209 ZM11.447,29.922 C11.254,29.729 11.192,29.657 11.076,29.533 L13.167,27.632 C13.256,27.727 13.253,27.732 13.446,27.925 C13.639,28.117 13.641,28.112 13.736,28.200 L11.831,30.287 C11.707,30.120 11.640,30.114 11.447,29.922 ZM13.164,13.145 L11.076,11.242 C11.192,11.117 11.249,11.051 11.442,10.858 C11.635,10.665 11.707,10.603 11.831,10.488 L13.733,12.577 C13.638,12.665 13.634,12.663 13.440,12.855 C13.248,13.048 13.253,13.050 13.164,13.145 ZM7.954,23.880 C7.883,23.616 7.865,23.523 7.827,23.358 L10.589,22.756 C10.618,22.882 10.614,22.885 10.684,23.149 C10.755,23.412 10.759,23.409 10.797,23.533 L8.104,24.388 C8.053,24.226 8.024,24.143 7.954,23.880 ZM10.588,18.022 L7.827,17.417 C7.865,17.251 7.881,17.165 7.952,16.902 C8.022,16.639 8.053,16.548 8.104,16.387 L10.796,17.245 C10.758,17.370 10.753,17.370 10.682,17.633 C10.612,17.897 10.617,17.896 10.588,18.022 ZM37.380,15.998 L39.281,14.591 L40.676,15.115 L39.730,16.266 L37.380,15.998 ZM32.986,8.395 L33.929,6.227 L35.399,5.984 L35.156,7.453 L32.986,8.395 ZM25.109,1.657 L26.260,0.712 L26.785,2.106 L25.377,4.005 L25.109,1.657 ZM15.184,2.106 L15.708,0.712 L16.859,1.657 L16.591,4.005 L15.184,2.106 ZM6.569,5.984 L8.039,6.227 L8.982,8.395 L6.812,7.453 L6.569,5.984 ZM2.239,16.266 L1.293,15.115 L2.688,14.591 L4.589,15.998 L2.239,16.266 ZM4.589,24.777 L2.688,26.183 L1.293,25.659 L2.239,24.508 L4.589,24.777 ZM8.982,32.379 L8.039,34.547 L6.569,34.790 L6.812,33.321 L8.982,32.379 ZM16.859,39.117 L15.708,40.062 L15.184,38.668 L16.591,36.769 L16.859,39.117 ZM26.785,38.668 L26.260,40.062 L25.109,39.117 L25.377,36.769 L26.785,38.668 ZM35.399,34.790 L33.929,34.547 L32.986,32.379 L35.156,33.321 L35.399,34.790 ZM39.730,24.508 L40.676,25.659 L39.281,26.183 L37.380,24.777 L39.730,24.508 Z"/>
    </svg>