<?xml version="1.0" encoding="utf-8"?>
<!-- Generator: Adobe Illustrator 26.2.1, SVG Export Plug-In . SVG Version: 6.00 Build 0)  -->
<svg version="1.1" id="Layer_1" xmlns="http://www.w3.org/2000/svg" xmlns:xlink="http://www.w3.org/1999/xlink" x="0px" y="0px"
	 viewBox="0 0 44 44" style="enable-background:new 0 0 44 44;" xml:space="preserve">
<style type="text/css">
	.st0{fill-rule:evenodd;clip-rule:evenodd;fill:#3A334F;}
</style>
<path id="youtube" class="st0" d="M22,0C9.8,0,0,9.8,0,22s9.8,22,22,22c12.2,0,22-9.8,22-22S34.2,0,22,0L22,0z M30.1,31
	c-3.9,0.3-12.4,0.3-16.3,0c-4.2-0.3-4.7-2.3-4.7-9c0-6.6,0.5-8.7,4.7-9c3.8-0.3,12.4-0.3,16.3,0c4.2,0.3,4.7,2.3,4.7,9
	C34.8,28.6,34.3,30.7,30.1,31z M18.3,17.7l9,4.3l-9,4.3L18.3,17.7L18.3,17.7z"/>
</svg>
