<?xml version="1.0" encoding="utf-8"?>
<!-- Generator: Adobe Illustrator 26.2.1, SVG Export Plug-In . SVG Version: 6.00 Build 0)  -->
<svg version="1.1" id="Layer_1" xmlns="http://www.w3.org/2000/svg" xmlns:xlink="http://www.w3.org/1999/xlink" x="0px" y="0px"
	 viewBox="0 0 43.3 43.3" style="enable-background:new 0 0 43.3 43.3;" xml:space="preserve">
<style type="text/css">
	.st0{fill-rule:evenodd;clip-rule:evenodd;fill:#3A334F;}
</style>
<path id="instagram" class="st0" d="M26.8,11.4c-1.3-0.1-1.7-0.1-5.1-0.1s-3.8,0-5.1,0.1c-3.4,0.1-5,1.8-5.2,5.2
	c-0.1,1.3-0.1,1.7-0.1,5.1s0,3.8,0.1,5.1c0.2,3.4,1.8,5,5.2,5.2c1.3,0.1,1.7,0.1,5.1,0.1s3.8,0,5.1-0.1c3.4-0.2,5-1.8,5.2-5.2
	c0.1-1.3,0.1-1.7,0.1-5.1s0-3.8-0.1-5.1C31.8,13.2,30.2,11.5,26.8,11.4z M21.7,28.2c-3.6,0-6.5-2.9-6.5-6.5c0-3.6,2.9-6.5,6.5-6.5
	c3.6,0,6.5,2.9,6.5,6.5C28.2,25.3,25.3,28.2,21.7,28.2C21.7,28.2,21.7,28.2,21.7,28.2z M28.4,16.4c-0.8,0-1.5-0.7-1.5-1.5
	c0-0.8,0.7-1.5,1.5-1.5c0.8,0,1.5,0.7,1.5,1.5c0,0,0,0,0,0C29.9,15.8,29.3,16.4,28.4,16.4z M25.9,21.7c0,2.3-1.9,4.2-4.2,4.2
	s-4.2-1.9-4.2-4.2c0-2.3,1.9-4.2,4.2-4.2c0,0,0,0,0,0C24,17.5,25.9,19.3,25.9,21.7C25.9,21.7,25.9,21.7,25.9,21.7z M21.7,0
	C9.7,0,0,9.7,0,21.7c0,12,9.7,21.7,21.7,21.7c12,0,21.7-9.7,21.7-21.7c0,0,0,0,0,0C43.3,9.7,33.6,0,21.7,0L21.7,0z M34.2,26.9
	c-0.2,4.6-2.8,7.1-7.3,7.4c-1.3,0.1-1.8,0.1-5.2,0.1s-3.9,0-5.2-0.1c-4.6-0.2-7.1-2.8-7.3-7.4C9.1,25.5,9,25.1,9,21.7s0-3.9,0.1-5.2
	c0.2-4.6,2.8-7.1,7.3-7.4C17.8,9,18.3,9,21.7,9s3.9,0,5.2,0.1c4.6,0.2,7.2,2.8,7.3,7.4c0.1,1.4,0.1,1.8,0.1,5.2S34.3,25.5,34.2,26.9
	z"/>
</svg>
