<?xml version="1.0" encoding="utf-8"?>
<!-- Generator: Adobe Illustrator 26.2.1, SVG Export Plug-In . SVG Version: 6.00 Build 0)  -->
<svg version="1.1" id="Layer_1" xmlns="http://www.w3.org/2000/svg" xmlns:xlink="http://www.w3.org/1999/xlink" x="0px" y="0px"
	 viewBox="0 0 43.3 43.3" style="enable-background:new 0 0 43.3 43.3;" xml:space="preserve">
<style type="text/css">
	.st0{fill-rule:evenodd;clip-rule:evenodd;fill:#3A334F;}
</style>
<path id="facebook" class="st0" d="M21.7,0C9.7,0,0,9.7,0,21.7c0,12,9.7,21.7,21.7,21.7c12,0,21.7-9.7,21.7-21.7
	C43.3,9.7,33.6,0,21.7,0C21.7,0,21.7,0,21.7,0z M27.1,14.5h-2.4c-1,0-1.2,0.4-1.2,1.4v2.2h3.6l-0.4,3.6h-3.2v12.6h-5.4V21.7h-3.6
	v-3.6h3.6v-4.2c0-3.2,1.7-4.9,5.5-4.9h3.6V14.5z"/>
</svg>
